# xmcd
# 
# Track frame offsets:
#     150
#     22156
#     35193
#     51073
#     68139
#     88141
#     107214
#     122685
#     145250
#     159858
#     178483
#     203457
#     234809
#     258546
#     287618
#     307083
#     326885
#     342304
# 
# Disc length: 4773
# 
# Revision: 2
# Processed by: cddbd v1.5.2PL0 Copyright (c) Steve Scherf et al.
# Submitted via: fre:ac v1.0.31
# 
DISCID=1012a312
DTITLE=Eric Clapton - Give Me Strength: The '74 '75 Recordings Disc 1 461 Ocean Boulevard
DYEAR=1974
DGENRE=Rock/Pop
TTITLE0=Motherless Children
TTITLE1=Give Me Strength
TTITLE2=Willie And The Hand Jive
TTITLE3=Get Ready
TTITLE4=I Shot The Sheriff
TTITLE5=I Can't Hold Out
TTITLE6=Please Be With Me
TTITLE7=Let It Grow
TTITLE8=Steady Rollin' Man
TTITLE9=Mainline Florida
TTITLE10=Ain't That Lovin You [Out-Take]
TTITLE11=Meet Me (Down At The Bottom) [Out-Take]
TTITLE12=Lonesone Road Blues (Walking Down The Road) [Out-Take]
TTITLE13=Getting Acquainted [Out-Take]
TTITLE14=Getting Acquainted 2 (Too Late) [Out-Take]
TTITLE15=Eric After Hours Blues [Out-Take]
TTITLE16=Please Be With Me [Acoustic]  [Out-Take]
TTITLE17=Give Me Strength [Dobro 1]  [Out-Take]
EXTD=
EXTT0=
EXTT1=
EXTT2=
EXTT3=
EXTT4=
EXTT5=
EXTT6=
EXTT7=
EXTT8=
EXTT9=
EXTT10=
EXTT11=
EXTT12=
EXTT13=
EXTT14=
EXTT15=
EXTT16=
EXTT17=
PLAYORDER=
